Torque.2004.BRrip.720p.Dual.Audio.Eng-Hindi~MSBHATTI [First On Net]

IMDB:- http://www.imdb.com/title/tt0329691/

PLOT:- Biker Cary Ford is framed by an old rival and biker gang leader for the murder of another gang member who happens to be the brother of Trey (Ice Cube), leader of the most feared biker gang in the country. Ford is now on the run trying to clear his name from the murder with Trey and his gang looking for his blood.

Director: Joseph Kahn
Writer: Matt Johnson
Stars: Martin Henderson, Ice Cube and Monet Mazur

INFO:-

General
Complete name : Torque.2004.BRrip.720p.Dual.Audio.Eng-Hindi~MSBHATTI [First On Net]
Format : Matroska
File size : 2.86 GiB
Duration : 1h 20mn
Overall bit rate : 5 074 Kbps
Encoded date : UTC 2011-07-14 14:07:26
Writing application : mkvmerge v3.3.0 ('Language') built on Mar 24 2010 14:59:24
Writing library : libebml v0.8.0 + libmatroska v0.9.0

Video
ID : 1
Format : AVC
Format/Info : Advanced Video Codec
Format profile : High@L4.1
Format settings, CABAC : Yes
Format settings, ReFrames : 3 frames
Format settings, GOP : M=4, N=28
Codec ID : V_MPEG4/ISO/AVC
Duration : 1h 20mn
Bit rate mode : Variable
Bit rate : 4 270 Kbps
Maximum bit rate : 14.0 Mbps
Width : 1 280 pixels
Height : 544 pixels
Display aspect ratio : 2.35:1
Frame rate : 25.000 fps
Original frame rate : 23.976 fps
Color space : YUV
Chroma subsampling : 4:2:0
Bit depth : 8 bits
Scan type : Progressive
Bits/(Pixel*Frame) : 0.245
Stream size : 2.46 GiB (86%)
Writing library : x264 core 115 r1995 c1e60b9
Encoding settings : cabac=1 / ref=3 / deblock=1:0:0 / analyse=0x3:0x113 / me=hex / subme=7 / psy=1 / psy_rd=1.00:0.00 / mixed_ref=1 / me_range=16 / chroma_me=1 / trellis=1 / 8x8dct=1 / cqm=0 / deadzone=21,11 / fast_pskip=1 / chroma_qp_offset=-2 / threads=3 / sliced_threads=0 / slices=4 / nr=0 / decimate=1 / interlaced=0 / bluray_compat=1 / constrained_intra=0 / bframes=3 / b_pyramid=1 / b_adapt=1 / b_bias=0 / direct=1 / weightb=1 / open_gop=1 / weightp=1 / keyint=24 / keyint_min=2 / scenecut=40 / intra_refresh=0 / rc_lookahead=24 / rc=2pass / mbtree=1 / bitrate=4270 / ratetol=1.0 / qcomp=0.60 / qpmin=0 / qpmax=69 / qpstep=4 / cplxblur=20.0 / qblur=0.5 / vbv_maxrate=14000 / vbv_bufsize=14000 / nal_hrd=vbr / ip_ratio=1.40 / aq=1:1.00
Language : English

Audio #1
ID : 2
Format : AC-3
Format/Info : Audio Coding 3
Mode extension : CM (complete main)
Codec ID : A_AC3
Duration : 1h 20mn
Bit rate mode : Constant
Bit rate : 448 Kbps
Channel(s) : 6 channels
Channel positions : Front: L C R, Side: L R, LFE
Sampling rate : 48.0 KHz
Bit depth : 16 bits
Compression mode : Lossy
Stream size : 258 MiB (9%)
Title : MSBHATTI
Language : English

Audio #2
ID : 3
Format : MPEG Audio
Format version : Version 1
Format profile : Layer 3
Mode : Joint stereo
Codec ID : A_MPEG/L3
Codec ID/Hint : MP3
Duration : 1h 20mn
Bit rate mode : Constant
Bit rate : 160 Kbps
Channel(s) : 2 channels
Sampling rate : 48.0 KHz
Compression mode : Lossy
Delay relative to video : 200ms
Stream size : 92.2 MiB (3%)
Title : MSBHATTI
Language : Hindi

SCREENSHOTS:-
 
http://i1215.photobucket.com/albums/cc517/msbhatti/DualAudioTorqueBRripEng-Hindimkv_snapshot_000035_20110715_092440.jpg 
http://i1215.photobucket.com/albums/cc517/msbhatti/DualAudioTorqueBRripEng-Hindimkv_snapshot_000258_20110715_092543.jpg 
http://i1215.photobucket.com/albums/cc517/msbhatti/DualAudioTorqueBRripEng-Hindimkv_snapshot_001249_20110715_092845.jpg 
http://i1215.photobucket.com/albums/cc517/msbhatti/DualAudioTorqueBRripEng-Hindimkv_snapshot_001443_20110715_093109.jpg 
http://i1215.photobucket.com/albums/cc517/msbhatti/DualAudioTorqueBRripEng-Hindimkv_snapshot_001447_20110715_093407.jpg 
http://i1215.photobucket.com/albums/cc517/msbhatti/DualAudioTorqueBRripEng-Hindimkv_snapshot_004556_20110715_093818.jpg 
http://i1215.photobucket.com/albums/cc517/msbhatti/DualAudioTorqueBRripEng-Hindimkv_snapshot_005544_20110715_093902.jpg 
http://i1215.photobucket.com/albums/cc517/msbhatti/DualAudioTorqueBRripEng-Hindimkv_snapshot_010049_20110715_094014.jpg 
http://i1215.photobucket.com/albums/cc517/msbhatti/DualAudioTorqueBRripEng-Hindimkv_snapshot_010942_20110715_094116.jpg

IF U LIKE MY WORK SO COMMENT PLZ

REGARDS

MSBHATTI





